<svg xmlns="http://www.w3.org/2000/svg" xmlns:xlink="http://www.w3.org/1999/xlink" width="96" zoomAndPan="magnify" viewBox="0 0 72 72" height="96" preserveAspectRatio="xMidYMid meet" version="1.0"><defs><filter x="0%" y="0%" width="100%" height="100%" id="id1"><feColorMatrix values="0 0 0 0 1 0 0 0 0 1 0 0 0 0 1 0 0 0 1 0" color-interpolation-filters="sRGB"/></filter><clipPath id="id2"><path d="M 0 1.308594 L 72 1.308594 L 72 71 L 0 71 Z M 0 1.308594 " clip-rule="nonzero"/></clipPath><clipPath id="id3"><path d="M 9.175781 8.335938 L 38.425781 8.335938 L 38.425781 63.835938 L 9.175781 63.835938 Z M 9.175781 8.335938 " clip-rule="nonzero"/></clipPath><mask id="id4"><g filter="url(#id1)"><rect x="-7.2" width="86.4" fill="#000000" y="-7.2" height="86.4" fill-opacity="0.8078"/></g></mask><clipPath id="id5"><path d="M 7 1 L 21.082031 1 L 21.082031 38 L 7 38 Z M 7 1 " clip-rule="nonzero"/></clipPath><clipPath id="id6"><rect x="0" width="22" y="0" height="39"/></clipPath></defs><path fill="#ffffff" d="M 31.675781 38.652344 L 40.003906 38.652344 C 40.144531 38.652344 40.277344 38.675781 40.40625 38.730469 C 40.535156 38.785156 40.652344 38.863281 40.75 38.960938 C 40.847656 39.058594 40.925781 39.175781 40.976562 39.304688 C 41.03125 39.433594 41.058594 39.570312 41.058594 39.710938 L 41.058594 63.191406 C 41.058594 63.332031 41.03125 63.464844 40.976562 63.59375 C 40.925781 63.726562 40.847656 63.839844 40.75 63.9375 C 40.652344 64.039062 40.535156 64.117188 40.40625 64.167969 C 40.277344 64.222656 40.144531 64.25 40.003906 64.25 L 31.675781 64.25 C 31.535156 64.25 31.402344 64.222656 31.273438 64.167969 C 31.140625 64.117188 31.027344 64.039062 30.929688 63.9375 C 30.832031 63.839844 30.753906 63.726562 30.703125 63.59375 C 30.648438 63.464844 30.621094 63.332031 30.621094 63.191406 L 30.621094 39.710938 C 30.621094 39.570312 30.648438 39.433594 30.703125 39.304688 C 30.753906 39.175781 30.832031 39.058594 30.929688 38.960938 C 31.027344 38.863281 31.140625 38.785156 31.273438 38.730469 C 31.402344 38.675781 31.535156 38.652344 31.675781 38.652344 Z M 31.675781 38.652344 " fill-opacity="1" fill-rule="nonzero"/><path fill="#ffffff" d="M 61.117188 24.46875 L 69.445312 24.46875 C 69.585938 24.46875 69.71875 24.496094 69.847656 24.550781 C 69.976562 24.605469 70.09375 24.679688 70.191406 24.78125 C 70.289062 24.878906 70.367188 24.992188 70.417969 25.125 C 70.472656 25.253906 70.5 25.386719 70.5 25.527344 L 70.5 63.191406 C 70.5 63.332031 70.472656 63.464844 70.417969 63.59375 C 70.367188 63.726562 70.289062 63.839844 70.191406 63.9375 C 70.09375 64.039062 69.976562 64.117188 69.847656 64.167969 C 69.71875 64.222656 69.585938 64.25 69.445312 64.25 L 61.117188 64.25 C 60.976562 64.25 60.839844 64.222656 60.710938 64.167969 C 60.582031 64.117188 60.46875 64.039062 60.371094 63.9375 C 60.273438 63.839844 60.195312 63.726562 60.140625 63.59375 C 60.089844 63.464844 60.0625 63.332031 60.0625 63.191406 L 60.0625 25.527344 C 60.0625 25.386719 60.089844 25.253906 60.140625 25.125 C 60.195312 24.992188 60.273438 24.878906 60.371094 24.78125 C 60.46875 24.679688 60.582031 24.605469 60.710938 24.550781 C 60.839844 24.496094 60.976562 24.46875 61.117188 24.46875 Z M 61.117188 24.46875 " fill-opacity="1" fill-rule="nonzero"/><path fill="#ffffff" d="M 46.394531 46.679688 L 54.726562 46.679688 C 54.863281 46.679688 55 46.703125 55.128906 46.757812 C 55.257812 46.8125 55.371094 46.890625 55.46875 46.988281 C 55.570312 47.085938 55.644531 47.203125 55.699219 47.332031 C 55.753906 47.460938 55.777344 47.597656 55.777344 47.738281 L 55.777344 63.183594 C 55.777344 63.320312 55.753906 63.457031 55.699219 63.585938 C 55.644531 63.71875 55.570312 63.832031 55.46875 63.929688 C 55.371094 64.03125 55.257812 64.105469 55.128906 64.160156 C 55 64.214844 54.863281 64.242188 54.726562 64.242188 L 46.394531 64.242188 C 46.253906 64.242188 46.121094 64.214844 45.992188 64.160156 C 45.863281 64.105469 45.75 64.03125 45.648438 63.929688 C 45.550781 63.832031 45.476562 63.71875 45.421875 63.585938 C 45.367188 63.457031 45.339844 63.320312 45.339844 63.183594 L 45.339844 47.738281 C 45.339844 47.597656 45.367188 47.460938 45.421875 47.332031 C 45.476562 47.203125 45.550781 47.085938 45.648438 46.988281 C 45.75 46.890625 45.863281 46.8125 45.992188 46.757812 C 46.121094 46.703125 46.253906 46.679688 46.394531 46.679688 Z M 46.394531 46.679688 " fill-opacity="1" fill-rule="nonzero"/><path fill="#ffffff" d="M 16.953125 56.011719 L 25.285156 56.011719 C 25.425781 56.011719 25.558594 56.039062 25.6875 56.089844 C 25.816406 56.144531 25.929688 56.222656 26.03125 56.320312 C 26.128906 56.421875 26.203125 56.535156 26.257812 56.664062 C 26.3125 56.792969 26.339844 56.929688 26.339844 57.070312 L 26.339844 63.183594 C 26.339844 63.320312 26.3125 63.457031 26.257812 63.585938 C 26.203125 63.71875 26.128906 63.832031 26.03125 63.929688 C 25.929688 64.03125 25.816406 64.105469 25.6875 64.160156 C 25.558594 64.214844 25.425781 64.242188 25.285156 64.242188 L 16.953125 64.242188 C 16.816406 64.242188 16.679688 64.214844 16.550781 64.160156 C 16.421875 64.105469 16.308594 64.03125 16.210938 63.929688 C 16.109375 63.832031 16.035156 63.71875 15.980469 63.585938 C 15.925781 63.457031 15.902344 63.320312 15.902344 63.183594 L 15.902344 57.070312 C 15.902344 56.929688 15.925781 56.792969 15.980469 56.664062 C 16.035156 56.535156 16.109375 56.421875 16.210938 56.320312 C 16.308594 56.222656 16.421875 56.144531 16.550781 56.089844 C 16.679688 56.039062 16.816406 56.011719 16.953125 56.011719 Z M 16.953125 56.011719 " fill-opacity="1" fill-rule="nonzero"/><path fill="#ffffff" d="M 12.300781 39.472656 C 12.609375 39.472656 12.867188 39.359375 13.078125 39.132812 L 26.980469 24.046875 L 35.039062 33.371094 C 35.246094 33.605469 35.503906 33.726562 35.816406 33.734375 C 36.117188 33.730469 36.378906 33.625 36.597656 33.414062 L 59.902344 9.144531 L 59.902344 18.164062 C 59.902344 18.304688 59.929688 18.4375 59.980469 18.570312 C 60.035156 18.699219 60.113281 18.8125 60.210938 18.914062 C 60.308594 19.011719 60.421875 19.089844 60.550781 19.140625 C 60.679688 19.195312 60.816406 19.222656 60.957031 19.222656 C 61.09375 19.222656 61.230469 19.195312 61.359375 19.140625 C 61.488281 19.089844 61.601562 19.011719 61.699219 18.914062 C 61.800781 18.8125 61.875 18.699219 61.929688 18.570312 C 61.984375 18.4375 62.007812 18.304688 62.007812 18.164062 L 62.007812 6.710938 C 62.007812 6.570312 61.984375 6.4375 61.929688 6.304688 C 61.875 6.175781 61.800781 6.0625 61.699219 5.960938 C 61.601562 5.863281 61.488281 5.785156 61.359375 5.734375 C 61.230469 5.679688 61.09375 5.652344 60.957031 5.652344 L 49.574219 5.652344 C 49.433594 5.652344 49.300781 5.679688 49.171875 5.734375 C 49.042969 5.785156 48.925781 5.863281 48.828125 5.960938 C 48.730469 6.0625 48.652344 6.175781 48.601562 6.304688 C 48.546875 6.4375 48.519531 6.570312 48.519531 6.710938 C 48.519531 6.851562 48.546875 6.988281 48.601562 7.117188 C 48.652344 7.246094 48.730469 7.359375 48.828125 7.460938 C 48.925781 7.558594 49.042969 7.636719 49.171875 7.691406 C 49.300781 7.742188 49.433594 7.769531 49.574219 7.769531 L 58.265625 7.769531 L 35.875 31.089844 L 27.796875 21.765625 C 27.589844 21.53125 27.328125 21.40625 27.011719 21.402344 C 26.691406 21.375 26.429688 21.488281 26.230469 21.738281 L 11.523438 37.691406 C 11.382812 37.847656 11.292969 38.027344 11.257812 38.238281 C 11.222656 38.445312 11.25 38.644531 11.332031 38.839844 C 11.417969 39.03125 11.546875 39.1875 11.722656 39.300781 C 11.898438 39.417969 12.089844 39.472656 12.300781 39.472656 Z M 12.300781 39.472656 " fill-opacity="1" fill-rule="nonzero"/><g clip-path="url(#id2)"><path fill="#ffffff" d="M 70.996094 68.632812 L 2.140625 68.632812 L 2.140625 64.488281 L 6.828125 64.488281 C 6.96875 64.488281 7.101562 64.460938 7.230469 64.40625 C 7.363281 64.351562 7.476562 64.277344 7.574219 64.175781 C 7.671875 64.078125 7.75 63.960938 7.800781 63.832031 C 7.855469 63.703125 7.882812 63.566406 7.882812 63.425781 C 7.882812 63.285156 7.855469 63.152344 7.800781 63.023438 C 7.75 62.890625 7.671875 62.777344 7.574219 62.679688 C 7.476562 62.578125 7.363281 62.503906 7.230469 62.449219 C 7.101562 62.394531 6.96875 62.367188 6.828125 62.367188 L 2.140625 62.367188 L 2.140625 53.222656 L 6.828125 53.222656 C 6.96875 53.222656 7.101562 53.195312 7.230469 53.140625 C 7.363281 53.085938 7.476562 53.011719 7.574219 52.910156 C 7.671875 52.8125 7.75 52.699219 7.800781 52.566406 C 7.855469 52.4375 7.882812 52.304688 7.882812 52.164062 C 7.882812 52.023438 7.855469 51.886719 7.800781 51.757812 C 7.75 51.628906 7.671875 51.511719 7.574219 51.414062 C 7.476562 51.3125 7.363281 51.238281 7.230469 51.183594 C 7.101562 51.128906 6.96875 51.101562 6.828125 51.101562 L 2.140625 51.101562 L 2.140625 41.90625 L 6.828125 41.90625 C 6.96875 41.90625 7.101562 41.878906 7.230469 41.824219 C 7.363281 41.769531 7.476562 41.695312 7.574219 41.59375 C 7.671875 41.496094 7.75 41.382812 7.800781 41.25 C 7.855469 41.121094 7.882812 40.988281 7.882812 40.847656 C 7.882812 40.707031 7.855469 40.570312 7.800781 40.441406 C 7.75 40.3125 7.671875 40.195312 7.574219 40.097656 C 7.476562 39.996094 7.363281 39.921875 7.230469 39.867188 C 7.101562 39.8125 6.96875 39.785156 6.828125 39.785156 L 2.140625 39.785156 L 2.140625 30.605469 L 6.828125 30.605469 C 6.96875 30.605469 7.101562 30.578125 7.230469 30.527344 C 7.363281 30.472656 7.476562 30.394531 7.574219 30.296875 C 7.671875 30.195312 7.75 30.082031 7.800781 29.953125 C 7.855469 29.824219 7.882812 29.6875 7.882812 29.546875 C 7.882812 29.40625 7.855469 29.269531 7.800781 29.140625 C 7.75 29.011719 7.671875 28.898438 7.574219 28.796875 C 7.476562 28.699219 7.363281 28.621094 7.230469 28.566406 C 7.101562 28.515625 6.96875 28.488281 6.828125 28.488281 L 2.140625 28.488281 L 2.140625 19.316406 L 6.828125 19.316406 C 6.96875 19.316406 7.101562 19.289062 7.230469 19.234375 C 7.363281 19.179688 7.476562 19.105469 7.574219 19.003906 C 7.671875 18.90625 7.75 18.792969 7.800781 18.660156 C 7.855469 18.53125 7.882812 18.398438 7.882812 18.257812 C 7.882812 18.117188 7.855469 17.980469 7.800781 17.851562 C 7.75 17.722656 7.671875 17.605469 7.574219 17.507812 C 7.476562 17.40625 7.363281 17.332031 7.230469 17.277344 C 7.101562 17.222656 6.96875 17.195312 6.828125 17.195312 L 2.140625 17.195312 L 2.140625 8.023438 L 6.828125 8.023438 C 6.96875 8.023438 7.101562 8 7.230469 7.945312 C 7.363281 7.890625 7.476562 7.8125 7.574219 7.714844 C 7.671875 7.617188 7.75 7.5 7.800781 7.371094 C 7.855469 7.242188 7.882812 7.105469 7.882812 6.964844 C 7.882812 6.824219 7.855469 6.691406 7.800781 6.558594 C 7.75 6.429688 7.671875 6.316406 7.574219 6.214844 C 7.476562 6.117188 7.363281 6.039062 7.230469 5.988281 C 7.101562 5.933594 6.96875 5.90625 6.828125 5.90625 L 2.140625 5.90625 L 2.140625 2.675781 C 2.140625 2.535156 2.113281 2.402344 2.0625 2.269531 C 2.007812 2.140625 1.933594 2.027344 1.832031 1.925781 C 1.734375 1.828125 1.621094 1.75 1.492188 1.695312 C 1.363281 1.644531 1.226562 1.617188 1.085938 1.617188 C 0.949219 1.617188 0.8125 1.644531 0.683594 1.695312 C 0.554688 1.75 0.441406 1.828125 0.34375 1.925781 C 0.242188 2.027344 0.167969 2.140625 0.113281 2.269531 C 0.0585938 2.402344 0.0351562 2.535156 0.0351562 2.675781 L 0.0351562 69.691406 C 0.0351562 69.832031 0.0585938 69.96875 0.113281 70.097656 C 0.167969 70.226562 0.242188 70.339844 0.34375 70.441406 C 0.441406 70.539062 0.554688 70.617188 0.683594 70.671875 C 0.8125 70.722656 0.949219 70.75 1.085938 70.75 L 70.996094 70.75 C 71.136719 70.75 71.269531 70.722656 71.398438 70.671875 C 71.527344 70.617188 71.644531 70.539062 71.742188 70.441406 C 71.839844 70.339844 71.917969 70.226562 71.96875 70.097656 C 72.023438 69.96875 72.050781 69.832031 72.050781 69.691406 C 72.050781 69.550781 72.023438 69.414062 71.96875 69.285156 C 71.917969 69.15625 71.839844 69.042969 71.742188 68.941406 C 71.644531 68.84375 71.527344 68.765625 71.398438 68.710938 C 71.269531 68.660156 71.136719 68.632812 70.996094 68.632812 Z M 70.996094 68.632812 " fill-opacity="1" fill-rule="nonzero"/></g><g clip-path="url(#id3)"><path fill="#a4161a" d="M 21.050781 52.109375 L 36.769531 63.5 C 37.113281 63.75 37.472656 63.777344 37.851562 63.585938 C 38.230469 63.394531 38.421875 63.085938 38.421875 62.664062 L 38.421875 9.542969 C 38.421875 9.117188 38.230469 8.8125 37.851562 8.617188 C 37.472656 8.425781 37.113281 8.457031 36.769531 8.703125 L 21.050781 20.085938 L 10.222656 20.085938 C 10.082031 20.085938 9.949219 20.113281 9.824219 20.167969 C 9.695312 20.21875 9.582031 20.292969 9.484375 20.390625 C 9.386719 20.488281 9.3125 20.601562 9.261719 20.726562 C 9.207031 20.855469 9.179688 20.984375 9.179688 21.125 L 9.179688 51.074219 C 9.179688 51.210938 9.207031 51.34375 9.261719 51.472656 C 9.3125 51.597656 9.386719 51.710938 9.484375 51.808594 C 9.582031 51.90625 9.695312 51.980469 9.824219 52.03125 C 9.949219 52.085938 10.082031 52.109375 10.222656 52.109375 Z M 21.050781 52.109375 " fill-opacity="1" fill-rule="nonzero"/><path fill="#161a1d" d="M 21.050781 52.109375 L 36.769531 63.5 C 37.113281 63.75 37.472656 63.777344 37.851562 63.585938 C 38.230469 63.394531 38.421875 63.085938 38.421875 62.664062 L 38.421875 9.542969 C 38.421875 9.117188 38.230469 8.8125 37.851562 8.617188 C 37.472656 8.425781 37.113281 8.457031 36.769531 8.703125 L 21.050781 20.085938 L 10.222656 20.085938 C 10.082031 20.085938 9.949219 20.113281 9.824219 20.167969 C 9.695312 20.21875 9.582031 20.292969 9.484375 20.390625 C 9.386719 20.488281 9.3125 20.601562 9.261719 20.726562 C 9.207031 20.855469 9.179688 20.984375 9.179688 21.125 L 9.179688 51.074219 C 9.179688 51.210938 9.207031 51.34375 9.261719 51.472656 C 9.3125 51.597656 9.386719 51.710938 9.484375 51.808594 C 9.582031 51.90625 9.695312 51.980469 9.824219 52.03125 C 9.949219 52.085938 10.082031 52.109375 10.222656 52.109375 Z M 22.429688 21.652344 L 36.339844 11.570312 L 36.339844 60.625 L 22.429688 50.546875 Z M 20.347656 22.160156 L 20.347656 50.039062 L 11.261719 50.039062 L 11.261719 25.921875 L 14.378906 25.921875 C 14.65625 25.921875 14.894531 25.824219 15.09375 25.636719 C 15.292969 25.824219 15.527344 25.921875 15.804688 25.921875 L 17.007812 25.921875 C 17.144531 25.921875 17.277344 25.894531 17.40625 25.84375 C 17.53125 25.789062 17.644531 25.714844 17.742188 25.617188 C 17.839844 25.519531 17.914062 25.410156 17.96875 25.28125 C 18.019531 25.15625 18.046875 25.023438 18.046875 24.886719 C 18.046875 24.75 18.019531 24.617188 17.96875 24.488281 C 17.914062 24.363281 17.839844 24.25 17.742188 24.152344 C 17.644531 24.054688 17.53125 23.980469 17.40625 23.929688 C 17.277344 23.875 17.144531 23.851562 17.007812 23.851562 L 15.804688 23.851562 C 15.527344 23.851562 15.292969 23.945312 15.09375 24.132812 C 14.894531 23.945312 14.65625 23.851562 14.378906 23.851562 L 11.261719 23.851562 L 11.261719 22.160156 Z M 20.347656 22.160156 " fill-opacity="1" fill-rule="nonzero"/></g><g mask="url(#id4)"><g transform="matrix(1, 0, 0, 1, 42, 17)"><g clip-path="url(#id6)"><g clip-path="url(#id5)"><path fill="#161a1d" d="M 10.671875 1.78125 C 9.894531 1.3125 8.960938 1.625 8.496094 2.40625 C 8.03125 3.1875 8.339844 4.121094 9.117188 4.589844 C 14.554688 7.554688 17.972656 13.175781 17.972656 19.417969 C 17.972656 25.972656 14.089844 32.058594 8.03125 34.867188 C 7.253906 35.179688 6.941406 36.117188 7.253906 36.894531 C 7.566406 37.519531 8.03125 37.832031 8.652344 37.832031 C 8.808594 37.832031 9.117188 37.832031 9.273438 37.675781 C 16.421875 34.398438 21.082031 27.21875 21.082031 19.417969 C 21.082031 12.082031 17.042969 5.371094 10.671875 1.78125 Z M 10.671875 1.78125 " fill-opacity="1" fill-rule="nonzero"/></g><path fill="#161a1d" d="M 14.089844 19.417969 C 14.089844 14.734375 11.449219 10.363281 7.410156 8.023438 C 6.632812 7.554688 5.699219 7.867188 5.234375 8.648438 C 4.769531 9.429688 5.078125 10.363281 5.855469 10.832031 C 8.960938 12.550781 10.984375 15.828125 10.984375 19.417969 C 10.984375 23.320312 8.652344 26.75 5.234375 28.46875 C 4.457031 28.78125 4.148438 29.71875 4.457031 30.496094 C 4.769531 31.121094 5.234375 31.433594 5.855469 31.433594 C 6.011719 31.433594 6.320312 31.433594 6.476562 31.277344 C 11.136719 29.09375 14.089844 24.410156 14.089844 19.417969 Z M 14.089844 19.417969 " fill-opacity="1" fill-rule="nonzero"/><path fill="#161a1d" d="M 7.097656 19.417969 C 7.097656 17.230469 5.855469 15.203125 3.992188 14.109375 C 3.214844 13.640625 2.28125 13.953125 1.816406 14.734375 C 1.351562 15.515625 1.660156 16.453125 2.4375 16.917969 C 3.371094 17.386719 3.835938 18.324219 3.835938 19.417969 C 3.835938 20.507812 3.214844 21.601562 2.128906 21.914062 C 1.351562 22.226562 1.039062 23.164062 1.351562 23.941406 C 1.660156 24.566406 2.128906 24.878906 2.75 24.878906 C 2.902344 24.878906 3.214844 24.878906 3.371094 24.722656 C 5.699219 23.941406 7.097656 21.757812 7.097656 19.417969 Z M 7.097656 19.417969 " fill-opacity="1" fill-rule="nonzero"/></g></g></g></svg>