<svg xmlns="http://www.w3.org/2000/svg" xmlns:xlink="http://www.w3.org/1999/xlink" width="96" zoomAndPan="magnify" viewBox="0 0 72 30.000001" height="40" preserveAspectRatio="xMidYMid meet" version="1.0"><defs><g/><clipPath id="id1"><path d="M 1.160156 3.660156 L 14.226562 3.660156 L 14.226562 25.433594 L 1.160156 25.433594 Z M 1.160156 3.660156 " clip-rule="nonzero"/></clipPath></defs><g clip-path="url(#id1)"><path fill="#13252f" d="M 11.945312 25.410156 L 1.164062 14.582031 L 12.019531 3.683594 L 14.226562 5.898438 L 5.578125 14.582031 L 14.152344 23.191406 L 11.945312 25.410156 " fill-opacity="1" fill-rule="nonzero"/></g><g fill="#161a1d" fill-opacity="1"><g transform="translate(18.054751, 21.676545)"><g><path d="M 7.992188 0 C 11.140625 0 12.910156 -1.816406 12.910156 -4.242188 C 12.910156 -6.5 11.511719 -7.621094 10.019531 -7.96875 C 11.464844 -8.367188 12.511719 -9.71875 12.511719 -11.441406 C 12.511719 -13.863281 10.671875 -15.707031 7.199219 -15.707031 L 1.632812 -15.707031 L 1.632812 0 Z M 6.828125 -13.304688 C 8.691406 -13.304688 9.507812 -12.492188 9.507812 -11.324219 C 9.507812 -10.113281 8.550781 -9.089844 6.339844 -9.089844 L 4.566406 -9.089844 L 4.566406 -13.304688 Z M 6.96875 -6.734375 C 9.066406 -6.734375 9.902344 -5.824219 9.902344 -4.542969 C 9.902344 -3.144531 8.972656 -2.398438 7.085938 -2.398438 L 4.566406 -2.398438 L 4.566406 -6.734375 Z M 6.96875 -6.734375 "/></g></g></g><g fill="#161a1d" fill-opacity="1"><g transform="translate(31.84998, 21.676545)"><g><path d="M 5.570312 -1.980469 C 4.402344 -1.980469 3.84375 -2.5625 3.84375 -3.472656 C 3.84375 -4.359375 4.566406 -5.078125 6.105469 -5.078125 L 7.550781 -5.078125 L 7.550781 -3.960938 C 7.550781 -2.796875 6.828125 -1.980469 5.570312 -1.980469 Z M 7.667969 -1.421875 L 7.667969 0 L 10.441406 0 L 10.441406 -7.550781 C 10.441406 -10.53125 8.902344 -12.023438 5.640625 -12.023438 C 4.007812 -12.023438 2.539062 -11.652344 1.816406 -11.207031 L 1.816406 -8.621094 C 2.703125 -9.203125 4.007812 -9.671875 5.289062 -9.671875 C 7.015625 -9.671875 7.550781 -8.902344 7.550781 -7.667969 L 7.550781 -6.945312 L 5.824219 -6.945312 C 2.609375 -6.945312 0.933594 -5.570312 0.933594 -3.355469 C 0.933594 -1.421875 2.285156 0.09375 4.589844 0.09375 C 6.410156 0.09375 7.292969 -0.722656 7.667969 -1.421875 Z M 7.667969 -1.421875 "/></g></g></g><g fill="#161a1d" fill-opacity="1"><g transform="translate(43.664471, 21.676545)"><g><path d="M 10.066406 -0.511719 L 10.066406 -2.9375 C 9.296875 -2.445312 8.296875 -2.144531 7.386719 -2.144531 C 5.125 -2.144531 3.820312 -3.683594 3.75 -5.871094 C 3.773438 -8.15625 5.242188 -9.625 7.410156 -9.625 C 8.273438 -9.625 9.296875 -9.367188 10.066406 -8.878906 L 10.066406 -11.347656 C 9.066406 -11.882812 7.992188 -12 7.128906 -12 C 3.144531 -12 0.910156 -9.179688 0.886719 -5.871094 C 0.886719 -2.398438 3.308594 0.210938 6.992188 0.210938 C 8.085938 0.210938 9.273438 -0.046875 10.066406 -0.511719 Z M 10.066406 -0.511719 "/></g></g></g><g fill="#161a1d" fill-opacity="1"><g transform="translate(54.61676, 21.676545)"><g><path d="M 4.3125 0 L 4.3125 -6.105469 L 8.550781 0 L 11.835938 0 L 7.410156 -6.175781 L 11.746094 -11.816406 L 8.480469 -11.816406 L 4.3125 -6.269531 L 4.3125 -16.195312 L 1.515625 -16.195312 L 1.515625 0 Z M 4.3125 0 "/></g></g></g></svg>