<svg xmlns="http://www.w3.org/2000/svg" xmlns:xlink="http://www.w3.org/1999/xlink" width="96" zoomAndPan="magnify" viewBox="0 0 72 72" height="96" preserveAspectRatio="xMidYMid meet" version="1.0"><defs><clipPath id="id1"><path d="M 9.089844 0 L 63.089844 0 L 63.089844 72 L 9.089844 72 Z M 9.089844 0 " clip-rule="nonzero"/></clipPath></defs><g clip-path="url(#id1)"><path fill="#ffffff" d="M 19.703125 47.917969 C 19.191406 47.917969 18.777344 47.503906 18.777344 46.992188 C 18.777344 46.480469 19.191406 46.0625 19.703125 46.0625 L 36.089844 46.0625 C 36.601562 46.0625 37.015625 46.480469 37.015625 46.992188 C 37.015625 47.503906 36.601562 47.917969 36.089844 47.917969 Z M 19.703125 41.238281 C 19.191406 41.238281 18.777344 40.824219 18.777344 40.3125 C 18.777344 39.796875 19.191406 39.382812 19.703125 39.382812 L 52.476562 39.382812 C 52.988281 39.382812 53.402344 39.796875 53.402344 40.3125 C 53.402344 40.824219 52.988281 41.238281 52.476562 41.238281 Z M 19.703125 34.558594 C 19.191406 34.558594 18.777344 34.144531 18.777344 33.632812 C 18.777344 33.121094 19.191406 32.703125 19.703125 32.703125 L 52.476562 32.703125 C 52.988281 32.703125 53.402344 33.121094 53.402344 33.632812 C 53.402344 34.144531 52.988281 34.558594 52.476562 34.558594 Z M 19.703125 27.878906 C 19.191406 27.878906 18.777344 27.464844 18.777344 26.953125 C 18.777344 26.441406 19.191406 26.023438 19.703125 26.023438 L 52.476562 26.023438 C 52.988281 26.023438 53.402344 26.441406 53.402344 26.953125 C 53.402344 27.464844 52.988281 27.878906 52.476562 27.878906 Z M 19.703125 21.199219 C 19.191406 21.199219 18.777344 20.785156 18.777344 20.273438 C 18.777344 19.761719 19.191406 19.34375 19.703125 19.34375 L 52.476562 19.34375 C 52.988281 19.34375 53.402344 19.761719 53.402344 20.273438 C 53.402344 20.785156 52.988281 21.199219 52.476562 21.199219 Z M 19.703125 14.519531 C 19.191406 14.519531 18.777344 14.105469 18.777344 13.59375 C 18.777344 13.082031 19.191406 12.664062 19.703125 12.664062 L 52.476562 12.664062 C 52.988281 12.664062 53.402344 13.082031 53.402344 13.59375 C 53.402344 14.105469 52.988281 14.519531 52.476562 14.519531 Z M 14.460938 0.0078125 C 13.597656 0.0625 12.828125 0.207031 12.140625 0.539062 C 11.4375 0.882812 10.816406 1.371094 10.320312 1.972656 C 10.097656 2.246094 9.902344 2.539062 9.742188 2.828125 C 9.660156 2.980469 9.582031 3.136719 9.515625 3.296875 C 9.339844 3.746094 9.21875 4.140625 9.152344 4.570312 C 9.113281 4.835938 9.089844 5.105469 9.089844 5.382812 L 9.089844 66.617188 C 9.089844 66.894531 9.113281 67.167969 9.152344 67.433594 C 9.300781 68.390625 9.753906 69.332031 10.320312 70.03125 C 10.761719 70.5625 11.300781 71.007812 11.90625 71.339844 C 12.695312 71.742188 13.710938 71.988281 14.460938 71.992188 L 46.570312 71.992188 L 47.167969 71.390625 C 47.5625 71.019531 47.808594 70.75 48.199219 70.363281 L 63.089844 55.457031 L 63.089844 5.382812 C 63.078125 4.972656 63.03125 4.523438 62.949219 4.175781 C 62.738281 3.265625 62.296875 2.445312 61.6875 1.773438 C 61.515625 1.585938 61.328125 1.40625 61.128906 1.242188 C 60.199219 0.472656 59.007812 0.0078125 57.71875 0.0078125 Z M 14.460938 1.863281 L 57.71875 1.863281 C 59.65625 1.863281 61.238281 3.441406 61.238281 5.382812 L 61.238281 53.960938 C 61.238281 54.359375 61.152344 54.535156 61.03125 54.675781 C 60.910156 54.820312 60.699219 54.957031 60.332031 55.066406 C 59.597656 55.28125 58.347656 55.296875 56.96875 55.238281 C 55.59375 55.183594 54.082031 55.078125 52.671875 55.203125 C 51.257812 55.328125 49.863281 55.683594 48.929688 56.765625 C 46.875 59.140625 47.261719 62.777344 47.230469 65.660156 C 47.210938 67.101562 47.097656 68.363281 46.777344 69.105469 C 46.597656 69.507812 46.226562 69.886719 45.894531 70.046875 C 45.683594 70.109375 45.417969 70.140625 45.074219 70.140625 L 14.460938 70.140625 C 13.953125 70.101562 13.515625 70.035156 13.09375 69.863281 C 12.039062 69.414062 11.25 68.472656 11.015625 67.324219 C 10.964844 67.085938 10.941406 66.84375 10.941406 66.617188 L 10.941406 5.382812 C 10.941406 5.144531 10.96875 4.898438 11.015625 4.675781 C 11.261719 3.472656 12.121094 2.492188 13.253906 2.074219 C 13.640625 1.933594 14.089844 1.863281 14.460938 1.863281 Z M 54.273438 57 C 55.113281 57.007812 56.011719 57.054688 56.894531 57.09375 C 57.542969 57.117188 58.183594 57.140625 58.800781 57.125 L 49.046875 66.890625 C 49.066406 66.496094 49.074219 66.089844 49.082031 65.683594 C 49.117188 62.683594 49.039062 59.472656 50.332031 57.976562 C 50.777344 57.460938 51.636719 57.15625 52.835938 57.050781 C 53.285156 57.011719 53.769531 57 54.273438 57 " fill-opacity="1" fill-rule="nonzero"/></g></svg>