<svg xmlns="http://www.w3.org/2000/svg" xmlns:xlink="http://www.w3.org/1999/xlink" width="96" zoomAndPan="magnify" viewBox="0 0 72 72" height="96" preserveAspectRatio="xMidYMid meet" version="1.0"><defs><clipPath id="id1"><path d="M 1.089844 2.742188 L 71.109375 2.742188 L 71.109375 69.257812 L 1.089844 69.257812 Z M 1.089844 2.742188 " clip-rule="nonzero"/></clipPath></defs><g clip-path="url(#id1)"><path fill="#ffde59" d="M 37.152344 3.390625 L 47.035156 23.398438 C 47.183594 23.746094 47.535156 23.996094 47.9375 24.046875 L 70.054688 27.246094 C 71.007812 27.398438 71.410156 28.597656 70.707031 29.25 L 54.707031 44.800781 C 54.40625 45.050781 54.308594 45.453125 54.355469 45.851562 L 58.117188 67.855469 C 58.269531 68.808594 57.265625 69.558594 56.414062 69.109375 L 36.601562 58.707031 C 36.25 58.503906 35.847656 58.503906 35.5 58.707031 L 15.6875 69.109375 C 14.832031 69.558594 13.832031 68.808594 13.980469 67.855469 L 17.742188 45.851562 C 17.792969 45.453125 17.691406 45.101562 17.390625 44.800781 L 1.441406 29.25 C 0.738281 28.546875 1.140625 27.398438 2.09375 27.246094 L 24.210938 24.046875 C 24.613281 23.996094 24.914062 23.746094 25.117188 23.398438 L 34.996094 3.390625 C 35.449219 2.542969 36.703125 2.542969 37.152344 3.390625 Z M 37.152344 3.390625 " fill-opacity="1" fill-rule="nonzero"/></g></svg>